<svg xmlns="http://www.w3.org/2000/svg" version="1.1" xmlns:xlink="http://www.w3.org/1999/xlink" xmlns:svgjs="http://svgjs.dev/svgjs" width="1000" height="358" viewBox="0 0 1000 358"><g transform="matrix(1,0,0,1,-0.6060606060606233,-0.14238747609832103)"><svg viewBox="0 0 396 142" data-background-color="#ffffff" preserveAspectRatio="xMidYMid meet" height="358" width="1000" xmlns="http://www.w3.org/2000/svg" xmlns:xlink="http://www.w3.org/1999/xlink"><g id="tight-bounds" transform="matrix(1,0,0,1,0.2400000000000091,0.05647771398312784)"><svg viewBox="0 0 395.52 141.88704457203374" height="141.88704457203374" width="395.52"><g><svg viewBox="0 0 681.3694076073197 244.43135999999998" height="141.88704457203374" width="395.52"><g transform="matrix(1,0,0,1,285.8494076073197,65.09055113620393)"><svg viewBox="0 0 395.52 114.25025772759213" height="114.25025772759213" width="395.52"><g id="textblocktransform"><svg viewBox="0 0 395.52 114.25025772759213" height="114.25025772759213" width="395.52" id="textblock"><g><svg viewBox="0 0 395.52 70.17748116254036" height="70.17748116254036" width="395.52"><g transform="matrix(1,0,0,1,0,0)"><svg width="395.52" viewBox="2.25 -38.849998474121094 278.6700134277344 49.44999694824219" height="70.17748116254036" data-palette-color="#1ebbd7"><path d="M14.4-35Q20.1-35 23.3-30.58 26.5-26.15 26.5-17.2L26.5-17.2Q26.5-8.35 23.3-3.88 20.1 0.6 14.4 0.6L14.4 0.6Q8.7 0.6 5.48-3.8 2.25-8.2 2.25-17.15L2.25-17.15Q2.25-26 5.5-30.5 8.75-35 14.4-35L14.4-35ZM14.4-31.3Q10.8-31.3 8.93-28 7.05-24.7 7.05-17.15L7.05-17.15Q7.05-9.65 8.95-6.4 10.85-3.15 14.4-3.15L14.4-3.15Q18-3.15 19.85-6.38 21.7-9.6 21.7-17.2L21.7-17.2Q21.7-24.75 19.85-28.03 18-31.3 14.4-31.3L14.4-31.3ZM43.05-26.9Q46.9-26.9 48.9-23.38 50.9-19.85 50.9-13.2L50.9-13.2Q50.9-6.75 48.7-3.08 46.5 0.6 42.4 0.6L42.4 0.6Q39 0.6 36.8-2.3L36.8-2.3 36.8 10.05 32.4 10.6 32.4-26.35 36.25-26.35 36.5-22.85Q39-26.9 43.05-26.9L43.05-26.9ZM41.45-3Q43.8-3 45.02-5.43 46.25-7.85 46.25-13.2L46.25-13.2Q46.25-18.65 45.2-21.03 44.15-23.4 41.9-23.4L41.9-23.4Q39.05-23.4 36.8-19.55L36.8-19.55 36.8-6.05Q38.7-3 41.45-3L41.45-3ZM73.84-13.95Q73.84-12.85 73.75-11.65L73.75-11.65 59.95-11.65Q60.15-6.9 61.52-4.95 62.9-3 65.45-3L65.45-3Q67.09-3 68.4-3.53 69.7-4.05 71.09-5.2L71.09-5.2 73.05-2.55Q69.75 0.6 65.3 0.6L65.3 0.6Q60.6 0.6 58-2.88 55.4-6.35 55.4-12.9L55.4-12.9Q55.4-19.45 57.87-23.18 60.35-26.9 64.84-26.9L64.84-26.9Q69.2-26.9 71.52-23.63 73.84-20.35 73.84-13.95L73.84-13.95ZM69.59-14.9L69.59-15.25Q69.59-19.55 68.45-21.5 67.3-23.45 64.84-23.45L64.84-23.45Q62.65-23.45 61.4-21.48 60.15-19.5 59.95-14.9L59.95-14.9 69.59-14.9ZM90.24-26.9Q93.09-26.9 94.79-24.85 96.49-22.8 96.49-19.35L96.49-19.35 96.49 0 92.09 0 92.09-18.75Q92.09-21.3 91.37-22.38 90.64-23.45 89.19-23.45L89.19-23.45Q86.34-23.45 83.89-18.55L83.89-18.55 83.89 0 79.49 0 79.49-26.35 83.29-26.35 83.64-22.4Q84.94-24.6 86.49-25.75 88.04-26.9 90.24-26.9L90.24-26.9ZM111.24-35Q113.99-35 116.11-34.02 118.24-33.05 120.04-31.05L120.04-31.05 117.64-28.45Q116.09-29.95 114.59-30.63 113.09-31.3 111.29-31.3L111.29-31.3Q109.14-31.3 107.81-29.93 106.49-28.55 106.49-26.3L106.49-26.3Q106.49-24.1 107.77-22.7 109.04-21.3 112.59-19.95L112.59-19.95Q116.69-18.4 118.79-16.1 120.89-13.8 120.89-9.55L120.89-9.55Q120.89-6.8 119.61-4.48 118.34-2.15 115.99-0.78 113.64 0.6 110.54 0.6L110.54 0.6Q107.44 0.6 105.04-0.55 102.64-1.7 100.69-3.85L100.69-3.85 103.14-6.45Q104.89-4.85 106.61-4 108.34-3.15 110.44-3.15L110.44-3.15Q113.04-3.15 114.59-4.85 116.14-6.55 116.14-9.45L116.14-9.45Q116.14-11.95 114.89-13.45 113.64-14.95 110.24-16.2L110.24-16.2Q105.89-17.85 103.86-20.2 101.84-22.55 101.84-26.1L101.84-26.1Q101.84-28.55 103.04-30.6 104.24-32.65 106.39-33.83 108.54-35 111.24-35L111.24-35ZM126.09-26.35L130.49-26.35 130.49 0 126.09 0 126.09-26.35ZM128.24-38.85Q129.59-38.85 130.39-38 131.19-37.15 131.19-35.8L131.19-35.8Q131.19-34.55 130.36-33.7 129.54-32.85 128.24-32.85L128.24-32.85Q126.94-32.85 126.11-33.7 125.29-34.55 125.29-35.8L125.29-35.8Q125.29-37.1 126.11-37.98 126.94-38.85 128.24-38.85L128.24-38.85ZM148.53-26.9Q151.38-26.9 153.08-24.85 154.78-22.8 154.78-19.35L154.78-19.35 154.78 0 150.38 0 150.38-18.75Q150.38-21.3 149.66-22.38 148.94-23.45 147.48-23.45L147.48-23.45Q144.63-23.45 142.19-18.55L142.19-18.55 142.19 0 137.78 0 137.78-26.35 141.58-26.35 141.94-22.4Q143.23-24.6 144.78-25.75 146.33-26.9 148.53-26.9L148.53-26.9ZM178.53-29.15L179.83-25.2Q178.68-24.7 177.26-24.55 175.83-24.4 173.63-24.4L173.63-24.4Q177.48-22.3 177.48-17.7L177.48-17.7Q177.48-13.65 175.23-11.23 172.98-8.8 169.03-8.8L169.03-8.8Q167.58-8.8 166.38-9.3L166.38-9.3Q165.88-8.9 165.61-8.22 165.33-7.55 165.33-6.8L165.33-6.8Q165.33-5.7 165.93-5.08 166.53-4.45 168.08-4.45L168.08-4.45 170.98-4.45Q173.43-4.45 175.28-3.5 177.13-2.55 178.11-0.93 179.08 0.7 179.08 2.65L179.08 2.65Q179.08 6.25 176.41 8.43 173.73 10.6 168.68 10.6L168.68 10.6Q163.48 10.6 161.31 8.58 159.13 6.55 159.13 2.65L159.13 2.65 163.03 2.65Q163.03 5.1 164.23 6.13 165.43 7.15 168.73 7.15L168.73 7.15Q171.93 7.15 173.33 6.08 174.73 5 174.73 2.95L174.73 2.95Q174.73-0.95 170.13-0.95L170.13-0.95 168.28-0.95Q164.68-0.95 163.03-2.27 161.38-3.6 161.38-5.85L161.38-5.85Q161.38-8.25 163.98-10.35L163.98-10.35Q160.13-12.7 160.13-17.75L160.13-17.75Q160.13-21.9 162.58-24.4 165.03-26.9 168.93-26.9L168.93-26.9Q172.43-26.9 174.43-27.45 176.43-28 178.53-29.15L178.53-29.15ZM168.88-23.75Q166.68-23.75 165.58-22.3 164.48-20.85 164.48-17.75L164.48-17.75Q164.48-15.05 165.63-13.4 166.78-11.75 168.83-11.75L168.83-11.75Q171.03-11.75 172.08-13.15 173.13-14.55 173.13-17.8L173.13-17.8Q173.13-23.75 168.88-23.75L168.88-23.75ZM188.18 0.6Q185.98 0.6 184.66-0.8 183.33-2.2 183.33-4.6L183.33-4.6 183.33-36.95 187.73-37.45 187.73-4.7Q187.73-3.05 189.13-3.05L189.13-3.05Q189.78-3.05 190.38-3.3L190.38-3.3 191.38-0.3Q189.93 0.6 188.18 0.6L188.18 0.6ZM212.83-13.95Q212.83-12.85 212.73-11.65L212.73-11.65 198.93-11.65Q199.13-6.9 200.5-4.95 201.88-3 204.43-3L204.43-3Q206.08-3 207.38-3.53 208.68-4.05 210.08-5.2L210.08-5.2 212.03-2.55Q208.73 0.6 204.28 0.6L204.28 0.6Q199.58 0.6 196.98-2.88 194.38-6.35 194.38-12.9L194.38-12.9Q194.38-19.45 196.85-23.18 199.33-26.9 203.83-26.9L203.83-26.9Q208.18-26.9 210.5-23.63 212.83-20.35 212.83-13.95L212.83-13.95ZM208.58-14.9L208.58-15.25Q208.58-19.55 207.43-21.5 206.28-23.45 203.83-23.45L203.83-23.45Q201.63-23.45 200.38-21.48 199.13-19.5 198.93-14.9L198.93-14.9 208.58-14.9ZM215.38-34.45L235.92-34.45 235.42-30.65 227.77-30.65 227.77 0 223.22 0 223.22-30.65 215.38-30.65 215.38-34.45ZM255.07-5.6Q255.07-4.2 255.47-3.53 255.87-2.85 256.77-2.45L256.77-2.45 255.82 0.6Q253.97 0.3 252.9-0.58 251.82-1.45 251.37-3.2L251.37-3.2Q249.22 0.6 245.07 0.6L245.07 0.6Q241.82 0.6 239.9-1.58 237.97-3.75 237.97-7.35L237.97-7.35Q237.97-11.55 240.57-13.78 243.17-16 248.12-16L248.12-16 250.72-16 250.72-18.4Q250.72-21 249.7-22.2 248.67-23.4 246.52-23.4L246.52-23.4Q243.97-23.4 240.57-22.05L240.57-22.05 239.47-25.15Q243.52-26.9 247.07-26.9L247.07-26.9Q251.12-26.9 253.1-24.73 255.07-22.55 255.07-18.6L255.07-18.6 255.07-5.6ZM245.97-2.7Q249.07-2.7 250.72-6.9L250.72-6.9 250.72-13.05 248.62-13.05Q245.47-13.05 244-11.7 242.52-10.35 242.52-7.55L242.52-7.55Q242.52-5.15 243.42-3.93 244.32-2.7 245.97-2.7L245.97-2.7ZM272.87-26.9Q276.67-26.9 278.79-23.45 280.92-20 280.92-13.2L280.92-13.2Q280.92-8.9 279.87-5.8 278.82-2.7 276.89-1.05 274.97 0.6 272.42 0.6L272.42 0.6Q270.72 0.6 269.22-0.28 267.72-1.15 266.62-2.75L266.62-2.75 266.32 0 262.42 0 262.42-36.9 266.82-37.35 266.82-23.15Q269.17-26.9 272.87-26.9L272.87-26.9ZM271.47-2.9Q276.27-2.9 276.27-13.2L276.27-13.2Q276.27-18.85 275.12-21.13 273.97-23.4 271.82-23.4L271.82-23.4Q269.02-23.4 266.82-19.35L266.82-19.35 266.82-6.3Q267.72-4.75 268.89-3.83 270.07-2.9 271.47-2.9L271.47-2.9Z" opacity="1" transform="matrix(1,0,0,1,0,0)" fill="#1ebbd7" class="wordmark-text-0" data-fill-palette-color="primary" id="text-0"></path></svg></g></svg></g><g transform="matrix(1,0,0,1,0,86.74470020546823)"><svg viewBox="0 0 375.74399999999997 27.505557522123894" height="27.505557522123894" width="375.74399999999997"><g transform="matrix(1,0,0,1,0,0)"><svg width="375.74399999999997" viewBox="1.149999976158142 -35.099998474121094 644.0299682617188 47.14999771118164" height="27.505557522123894" data-palette-color="#4b91f1"><path d="M13.3 0L1.15 0 1.15-1.05 2.2-1.35Q3.2-1.65 3.5-2.25 3.8-2.85 3.8-3.85L3.8-3.85 3.8-29.15Q3.8-30.2 3.48-30.78 3.15-31.35 2.15-31.65L2.15-31.65 1.15-32 1.15-33.05 13.3-33.05 13.3-32 12.25-31.65Q11.3-31.4 11-30.8 10.7-30.2 10.7-29.15L10.7-29.15 10.7-3.8Q10.7-2.8 11.05-2.23 11.4-1.65 12.35-1.35L12.35-1.35 13.3-1.05 13.3 0ZM31.9 0L19.35 0 19.35-1.05 19.95-1.2Q20.9-1.45 20.95-2.15 21-2.85 20.3-3.75L20.3-3.75 10.75-17 22.95-29.4Q23.7-30.15 23.78-30.78 23.85-31.4 22.85-31.75L22.85-31.75 22-32 22-33.05 29.9-33.05 29.9-32 28.6-31.65Q27.45-31.3 26.75-30.83 26.05-30.35 25.15-29.4L25.15-29.4 16.25-20.35 27.7-4Q28.5-2.9 29.23-2.25 29.95-1.6 31.2-1.25L31.2-1.25 31.9-1.05 31.9 0ZM45.95-24.75L45.95-24.75Q49.1-24.75 51.35-23.45 53.6-22.15 54.82-19.88 56.05-17.6 56.05-14.65L56.05-14.65Q56.05-14 56-13.43 55.95-12.85 55.8-12.35L55.8-12.35 40.75-12.35Q40.8-7.2 42.67-4.95 44.55-2.7 48.15-2.7L48.15-2.7Q50.65-2.7 52.2-3.53 53.75-4.35 55.05-5.85L55.05-5.85 55.85-5.1Q54.35-2.35 51.77-0.83 49.2 0.7 45.65 0.7L45.65 0.7Q42.1 0.7 39.4-0.8 36.7-2.3 35.17-5.13 33.65-7.95 33.65-11.9L33.65-11.9Q33.65-16 35.42-18.85 37.2-21.7 40.02-23.23 42.85-24.75 45.95-24.75ZM45.7-23.3L45.7-23.3Q44.25-23.3 43.17-22.48 42.1-21.65 41.47-19.58 40.85-17.5 40.75-13.75L40.75-13.75 49.7-13.75Q50.25-18.8 49.3-21.05 48.35-23.3 45.7-23.3ZM71.09-24.75L71.09-24.75Q74.25-24.75 76.5-23.45 78.75-22.15 79.97-19.88 81.2-17.6 81.2-14.65L81.2-14.65Q81.2-14 81.15-13.43 81.09-12.85 80.95-12.35L80.95-12.35 65.89-12.35Q65.95-7.2 67.82-4.95 69.7-2.7 73.3-2.7L73.3-2.7Q75.8-2.7 77.34-3.53 78.9-4.35 80.2-5.85L80.2-5.85 81-5.1Q79.5-2.35 76.92-0.83 74.34 0.7 70.8 0.7L70.8 0.7Q67.25 0.7 64.55-0.8 61.84-2.3 60.32-5.13 58.8-7.95 58.8-11.9L58.8-11.9Q58.8-16 60.57-18.85 62.34-21.7 65.17-23.23 68-24.75 71.09-24.75ZM70.84-23.3L70.84-23.3Q69.4-23.3 68.32-22.48 67.25-21.65 66.62-19.58 66-17.5 65.89-13.75L65.89-13.75 74.84-13.75Q75.4-18.8 74.45-21.05 73.5-23.3 70.84-23.3ZM95.54 11.55L83.74 11.55 83.74 10.6 84.39 10.4Q85.39 10.15 85.79 9.58 86.19 9 86.19 7.95L86.19 7.95Q86.19 5.9 86.22 4.08 86.24 2.25 86.24 0.55L86.24 0.55 86.24-13.2Q86.24-14.75 86.24-15.88 86.24-17 86.19-18.4L86.19-18.4Q86.19-19.45 85.84-20.03 85.49-20.6 84.49-20.8L84.49-20.8 83.74-20.95 83.74-21.85 91.79-24.75 92.39-24.25 92.84-22.4Q96.29-24.75 100.64-24.75L100.64-24.75Q104.89-24.75 107.47-21.55 110.04-18.35 110.04-12.1L110.04-12.1Q110.04-6.05 107.22-2.68 104.39 0.7 99.54 0.7L99.54 0.7Q97.59 0.7 95.87 0.35 94.14 0 92.79-0.7L92.79-0.7 92.79 0.8Q92.79 2.3 92.82 4.05 92.84 5.8 92.84 7.85L92.84 7.85Q92.84 9.85 94.59 10.35L94.59 10.35 95.54 10.6 95.54 11.55ZM97.19-1.3L97.19-1.3Q99.84-1.3 101.37-3.68 102.89-6.05 102.89-11.9L102.89-11.9Q102.89-17.7 101.44-20.03 99.99-22.35 97.34-22.35L97.34-22.35Q96.39-22.35 95.29-22.05 94.19-21.75 92.94-21.05L92.94-21.05 92.94-2.15Q94.94-1.3 97.19-1.3ZM127.74 12.05L127.74 12.05Q125.74 12.05 124.59 11.1 123.44 10.15 123.44 8.6L123.44 8.6Q123.44 7.2 124.41 6.38 125.39 5.55 126.59 5.55L126.59 5.55Q127.84 5.55 128.64 6 129.44 6.45 130.04 7.3L130.04 7.3 130.34 7.7Q131.49 9.1 132.49 7.65L132.49 7.65Q133.14 6.8 133.76 5.55 134.39 4.3 135.14 2.25L135.14 2.25 125.64-20.45Q125.29-21.4 124.84-21.93 124.39-22.45 123.49-22.8L123.49-22.8 122.64-23.1 122.64-24 134.99-24 134.99-23.1 133.94-22.8Q132.84-22.45 132.76-21.73 132.69-21 133.09-19.85L133.09-19.85 138.19-6.55 143.09-19.95Q143.49-21.05 143.39-21.8 143.29-22.55 142.14-22.8L142.14-22.8 141.04-23.1 141.04-24 148.49-24 148.49-23.1 147.39-22.75Q146.29-22.45 145.81-21.88 145.34-21.3 144.94-20.2L144.94-20.2 136.94 1.3Q134.94 6.8 132.86 9.43 130.79 12.05 127.74 12.05ZM162.64 0.7L162.64 0.7Q158.94 0.7 156.16-0.85 153.39-2.4 151.86-5.25 150.34-8.1 150.34-12.05L150.34-12.05Q150.34-16 151.96-18.85 153.59-21.7 156.36-23.23 159.14-24.75 162.64-24.75L162.64-24.75Q166.14-24.75 168.91-23.23 171.69-21.7 173.31-18.88 174.94-16.05 174.94-12.05L174.94-12.05Q174.94-8.1 173.41-5.23 171.89-2.35 169.14-0.83 166.39 0.7 162.64 0.7ZM162.64-0.7L162.64-0.7Q164.44-0.7 165.56-1.68 166.69-2.65 167.19-5.1 167.69-7.55 167.69-11.95L167.69-11.95Q167.69-16.4 167.19-18.88 166.69-21.35 165.56-22.33 164.44-23.3 162.64-23.3L162.64-23.3Q160.84-23.3 159.74-22.33 158.64-21.35 158.11-18.88 157.59-16.4 157.59-11.95L157.59-11.95Q157.59-7.55 158.11-5.1 158.64-2.65 159.74-1.68 160.84-0.7 162.64-0.7ZM186.18 0.7L186.18 0.7Q184.23 0.7 182.63-0.03 181.03-0.75 180.11-2.43 179.18-4.1 179.23-6.85L179.23-6.85 179.38-19.4Q179.38-20.5 179.03-21 178.68-21.5 177.78-21.7L177.78-21.7 177.18-21.9 177.18-22.8 185.73-24.45 186.28-23.9 186.03-16.85 186.03-5.5Q186.03-3.8 186.96-3.03 187.88-2.25 189.28-2.25L189.28-2.25Q190.73-2.25 191.91-2.68 193.08-3.1 194.33-3.95L194.33-3.95 194.48-19.35Q194.48-20.5 194.16-20.95 193.83-21.4 192.93-21.65L192.93-21.65 192.38-21.8 192.38-22.7 200.73-24.45 201.28-23.9 201.13-16.85 201.13-3.75Q201.13-2.7 201.41-2.08 201.68-1.45 202.63-1.15L202.63-1.15 203.28-0.95 203.28 0 194.83 0.5 194.38-2.65Q192.68-1.2 190.68-0.25 188.68 0.7 186.18 0.7ZM217.83 0L205.33 0 205.33-0.95 206.08-1.2Q207.08-1.45 207.46-2.05 207.83-2.65 207.83-3.65L207.83-3.65 207.83-18.3Q207.78-19.4 207.43-19.98 207.08-20.55 206.08-20.75L206.08-20.75 205.33-20.95 205.33-21.85 213.48-24.75 214.08-24.2 214.53-19.8 214.53-19.45Q215.28-20.85 216.43-22.05 217.58-23.25 218.93-24 220.28-24.75 221.63-24.75L221.63-24.75Q223.53-24.75 224.48-23.75 225.43-22.75 225.43-21.2L225.43-21.2Q225.43-19.5 224.48-18.63 223.53-17.75 222.18-17.75L222.18-17.75Q220.18-17.75 218.73-19.55L218.73-19.55 218.63-19.65Q218.13-20.25 217.51-20.33 216.88-20.4 216.28-19.7L216.28-19.7Q215.78-19.2 215.36-18.53 214.93-17.85 214.58-16.95L214.58-16.95 214.58-3.85Q214.58-2.9 214.98-2.27 215.38-1.65 216.33-1.4L216.33-1.4 217.83-0.95 217.83 0ZM247.48 0.7L247.48 0.7Q244.38 0.7 242.6-0.83 240.83-2.35 240.83-5.8L240.83-5.8Q240.83-7 240.85-8.08 240.88-9.15 240.88-10.6L240.88-10.6 240.88-22.45 237.33-22.45 237.33-23.55 238.68-23.75Q240.13-24 241.15-24.65 242.18-25.3 243.03-26.45L243.03-26.45 246.28-30.95 247.78-30.95 247.63-24 253.33-24 253.33-22.45 247.58-22.45 247.58-5.4Q247.58-3.6 248.35-2.7 249.13-1.8 250.28-1.8L250.28-1.8Q251.28-1.8 252.08-2.27 252.88-2.75 253.68-3.55L253.68-3.55 254.33-2.8Q253.38-1.15 251.68-0.23 249.98 0.7 247.48 0.7ZM263.22 0.7L263.22 0.7Q260.37 0.7 258.4-0.93 256.42-2.55 256.42-5.6L256.42-5.6Q256.42-8 258.75-10.03 261.07-12.05 266.07-13L266.07-13Q266.92-13.2 268.05-13.38 269.17-13.55 270.27-13.75L270.27-13.75 270.27-17.3Q270.27-20.7 269.42-22 268.57-23.3 266.72-23.3L266.72-23.3 266.57-23.3Q265.42-23.3 264.75-22.58 264.07-21.85 263.87-20.2L263.87-20.2 263.72-19.55Q263.57-17.55 262.67-16.63 261.77-15.7 260.42-15.7L260.42-15.7Q259.17-15.7 258.35-16.48 257.52-17.25 257.52-18.5L257.52-18.5Q257.52-20.55 258.92-21.95 260.32-23.35 262.65-24.05 264.97-24.75 267.67-24.75L267.67-24.75Q272.12-24.75 274.47-22.6 276.82-20.45 276.82-15.6L276.82-15.6 276.82-4.45Q276.82-2.3 278.87-2.3L278.87-2.3 280.02-2.3 280.52-1.75Q279.62-0.6 278.52 0.03 277.42 0.65 275.52 0.65L275.52 0.65Q273.37 0.65 272.1-0.38 270.82-1.4 270.42-3.1L270.42-3.1Q268.82-1.4 267.27-0.35 265.72 0.7 263.22 0.7ZM266.12-2.5L266.12-2.5Q267.12-2.5 268.02-2.95 268.92-3.4 270.27-4.45L270.27-4.45 270.27-12.45Q268.97-12.25 267.62-11.95L267.62-11.95Q265.47-11.45 264.15-10.1 262.82-8.75 262.82-6.45L262.82-6.45Q262.82-4.45 263.75-3.48 264.67-2.5 266.12-2.5ZM290.72-1.35L289.97 0.65 281.77 0 281.77-0.95 282.27-1.05Q284.22-1.5 284.22-3.55L284.22-3.55 284.22-29.55Q284.22-30.55 283.85-31.1 283.47-31.65 282.47-31.9L282.47-31.9 281.82-32.05 281.82-32.95 290.37-35.1 291.02-34.65 290.82-27.6 290.82-22.35Q294.37-24.75 298.47-24.75L298.47-24.75Q302.67-24.75 305.42-21.68 308.17-18.6 308.17-12.2L308.17-12.2Q308.17-7.95 306.77-5.08 305.37-2.2 303.02-0.75 300.67 0.7 297.82 0.7L297.82 0.7Q295.92 0.7 294.05 0.2 292.17-0.3 290.72-1.35L290.72-1.35ZM295.47-1.5L295.47-1.5Q297.12-1.5 298.37-2.45 299.62-3.4 300.32-5.7 301.02-8 301.02-12L301.02-12Q301.02-16 300.37-18.25 299.72-20.5 298.5-21.4 297.27-22.3 295.57-22.3L295.57-22.3Q293.32-22.3 290.97-21L290.97-21 290.97-2.75Q293.02-1.5 295.47-1.5ZM319.12 0.7L319.12 0.7Q316.72 0.7 314.79 0.18 312.87-0.35 311.12-1.3L311.12-1.3 311.12-7.2 312.47-7.2 313.97-4.35Q314.92-2.5 316.14-1.6 317.37-0.7 319.27-0.7L319.27-0.7Q321.62-0.7 323.02-1.73 324.42-2.75 324.42-4.5L324.42-4.5Q324.42-6.1 323.37-7.1 322.32-8.1 319.62-8.95L319.62-8.95 317.42-9.65Q314.47-10.55 312.74-12.38 311.02-14.2 311.02-16.95L311.02-16.95Q311.02-19.1 312.17-20.88 313.32-22.65 315.52-23.7 317.72-24.75 320.87-24.75L320.87-24.75Q322.92-24.75 324.64-24.28 326.37-23.8 328.02-22.95L328.02-22.95 327.72-17.6 326.42-17.6 324.87-20.45Q324.07-22.05 323.24-22.68 322.42-23.3 320.72-23.3L320.72-23.3Q318.92-23.3 317.54-22.38 316.17-21.45 316.17-19.8L316.17-19.8Q316.17-18.25 317.32-17.28 318.47-16.3 321.02-15.45L321.02-15.45 323.17-14.8Q326.82-13.65 328.37-11.75 329.92-9.85 329.92-7.2L329.92-7.2Q329.92-3.65 327.09-1.48 324.27 0.7 319.12 0.7ZM352.16 0.7L352.16 0.7Q350.21 0.7 348.61-0.03 347.01-0.75 346.09-2.43 345.16-4.1 345.21-6.85L345.21-6.85 345.36-19.4Q345.36-20.5 345.01-21 344.66-21.5 343.76-21.7L343.76-21.7 343.16-21.9 343.16-22.8 351.71-24.45 352.26-23.9 352.01-16.85 352.01-5.5Q352.01-3.8 352.94-3.03 353.86-2.25 355.26-2.25L355.26-2.25Q356.71-2.25 357.89-2.68 359.06-3.1 360.31-3.95L360.31-3.95 360.46-19.35Q360.46-20.5 360.14-20.95 359.81-21.4 358.91-21.65L358.91-21.65 358.36-21.8 358.36-22.7 366.71-24.45 367.26-23.9 367.11-16.85 367.11-3.75Q367.11-2.7 367.39-2.08 367.66-1.45 368.61-1.15L368.61-1.15 369.26-0.95 369.26 0 360.81 0.5 360.36-2.65Q358.66-1.2 356.66-0.25 354.66 0.7 352.16 0.7ZM382.76 0L371.31 0 371.31-0.95 372.11-1.15Q373.76-1.65 373.76-3.6L373.76-3.6 373.76-18.35Q373.71-19.4 373.41-19.98 373.11-20.55 372.11-20.75L372.11-20.75 371.31-20.95 371.31-21.85 379.41-24.75 380.01-24.2 380.36-21.1Q382.16-22.7 384.39-23.73 386.61-24.75 388.76-24.75L388.76-24.75Q392.06-24.75 393.84-22.95 395.61-21.15 395.61-17.45L395.61-17.45 395.61-3.55Q395.61-1.6 397.41-1.1L397.41-1.1 397.96-0.95 397.96 0 386.46 0 386.46-0.95 387.21-1.15Q388.86-1.7 388.86-3.6L388.86-3.6 388.86-18.45Q388.86-20.2 388.11-21 387.36-21.8 385.61-21.8L385.61-21.8Q383.16-21.8 380.51-19.65L380.51-19.65 380.51-3.55Q380.51-1.6 382.26-1.1L382.26-1.1 382.76-0.95 382.76 0ZM410.51 0.7L410.51 0.7Q407.56 0.7 405.21-0.63 402.86-1.95 401.53-4.73 400.21-7.5 400.21-11.8L400.21-11.8Q400.21-16.1 401.71-18.98 403.21-21.85 405.71-23.3 408.21-24.75 411.21-24.75L411.21-24.75Q413.01-24.75 414.66-24.33 416.31-23.9 417.56-23.05L417.56-23.05 417.56-29.55Q417.56-30.6 417.23-31.08 416.91-31.55 415.91-31.8L415.91-31.8 414.91-32 414.91-32.95 423.61-35.1 424.26-34.65 424.06-27.6 424.06-3.55Q424.06-2.6 424.41-1.98 424.76-1.35 425.66-1.1L425.66-1.1 426.21-0.95 426.21 0 417.91 0.55 417.46-1.55Q416.11-0.5 414.36 0.1 412.61 0.7 410.51 0.7ZM413.26-1.6L413.26-1.6Q415.41-1.6 417.31-3L417.31-3 417.31-21.6Q415.46-22.75 413.31-22.75L413.31-22.75Q410.86-22.75 409.11-20.18 407.36-17.6 407.36-11.9L407.36-11.9Q407.36-6.2 409.01-3.9 410.66-1.6 413.26-1.6ZM440.96-24.75L440.96-24.75Q444.11-24.75 446.36-23.45 448.61-22.15 449.83-19.88 451.06-17.6 451.06-14.65L451.06-14.65Q451.06-14 451.01-13.43 450.96-12.85 450.81-12.35L450.81-12.35 435.76-12.35Q435.81-7.2 437.68-4.95 439.56-2.7 443.16-2.7L443.16-2.7Q445.66-2.7 447.21-3.53 448.76-4.35 450.06-5.85L450.06-5.85 450.86-5.1Q449.36-2.35 446.78-0.83 444.21 0.7 440.66 0.7L440.66 0.7Q437.11 0.7 434.41-0.8 431.71-2.3 430.18-5.13 428.66-7.95 428.66-11.9L428.66-11.9Q428.66-16 430.43-18.85 432.21-21.7 435.03-23.23 437.86-24.75 440.96-24.75ZM440.71-23.3L440.71-23.3Q439.26-23.3 438.18-22.48 437.11-21.65 436.48-19.58 435.86-17.5 435.76-13.75L435.76-13.75 444.71-13.75Q445.26-18.8 444.31-21.05 443.36-23.3 440.71-23.3ZM466.1 0L453.6 0 453.6-0.95 454.35-1.2Q455.35-1.45 455.73-2.05 456.1-2.65 456.1-3.65L456.1-3.65 456.1-18.3Q456.05-19.4 455.7-19.98 455.35-20.55 454.35-20.75L454.35-20.75 453.6-20.95 453.6-21.85 461.75-24.75 462.35-24.2 462.8-19.8 462.8-19.45Q463.55-20.85 464.7-22.05 465.85-23.25 467.2-24 468.55-24.75 469.9-24.75L469.9-24.75Q471.8-24.75 472.75-23.75 473.7-22.75 473.7-21.2L473.7-21.2Q473.7-19.5 472.75-18.63 471.8-17.75 470.45-17.75L470.45-17.75Q468.45-17.75 467-19.55L467-19.55 466.9-19.65Q466.4-20.25 465.78-20.33 465.15-20.4 464.55-19.7L464.55-19.7Q464.05-19.2 463.63-18.53 463.2-17.85 462.85-16.95L462.85-16.95 462.85-3.85Q462.85-2.9 463.25-2.27 463.65-1.65 464.6-1.4L464.6-1.4 466.1-0.95 466.1 0ZM498.6 0.7L498.6 0.7Q495.2 0.7 492.45-0.78 489.7-2.25 488.12-5.08 486.55-7.9 486.55-11.95L486.55-11.95Q486.55-16 488.3-18.85 490.05-21.7 492.97-23.23 495.9-24.75 499.4-24.75L499.4-24.75Q502.25-24.75 504.25-23.8 506.25-22.85 507.3-21.38 508.35-19.9 508.35-18.25L508.35-18.25Q508.35-16.85 507.52-16.1 506.7-15.35 505.4-15.35L505.4-15.35Q504-15.35 503.12-16.35 502.25-17.35 502.1-18.9L502.1-18.9Q502.05-19.9 502.12-20.6 502.2-21.3 502.1-21.95L502.1-21.95Q501.9-22.8 501.42-23.1 500.95-23.4 500.1-23.4L500.1-23.4Q496.95-23.4 495.27-20.88 493.6-18.35 493.6-12.7L493.6-12.7Q493.6-7.85 495.45-5.25 497.3-2.65 501.2-2.65L501.2-2.65Q503.5-2.65 505-3.53 506.5-4.4 507.75-6.05L507.75-6.05 508.55-5.45Q507.3-2.45 504.72-0.88 502.15 0.7 498.6 0.7ZM523.4 0.7L523.4 0.7Q519.7 0.7 516.92-0.85 514.15-2.4 512.62-5.25 511.1-8.1 511.1-12.05L511.1-12.05Q511.1-16 512.72-18.85 514.35-21.7 517.12-23.23 519.9-24.75 523.4-24.75L523.4-24.75Q526.9-24.75 529.67-23.23 532.45-21.7 534.07-18.88 535.7-16.05 535.7-12.05L535.7-12.05Q535.7-8.1 534.17-5.23 532.65-2.35 529.9-0.83 527.15 0.7 523.4 0.7ZM523.4-0.7L523.4-0.7Q525.2-0.7 526.32-1.68 527.45-2.65 527.95-5.1 528.45-7.55 528.45-11.95L528.45-11.95Q528.45-16.4 527.95-18.88 527.45-21.35 526.32-22.33 525.2-23.3 523.4-23.3L523.4-23.3Q521.6-23.3 520.5-22.33 519.4-21.35 518.87-18.88 518.35-16.4 518.35-11.95L518.35-11.95Q518.35-7.55 518.87-5.1 519.4-2.65 520.5-1.68 521.6-0.7 523.4-0.7ZM549.44 0L537.99 0 537.99-0.95 538.79-1.15Q540.44-1.65 540.44-3.6L540.44-3.6 540.44-18.35Q540.39-19.4 540.09-19.98 539.79-20.55 538.79-20.75L538.79-20.75 537.99-20.95 537.99-21.85 546.09-24.75 546.69-24.2 547.04-21.1Q548.84-22.7 551.07-23.73 553.29-24.75 555.44-24.75L555.44-24.75Q558.74-24.75 560.52-22.95 562.29-21.15 562.29-17.45L562.29-17.45 562.29-3.55Q562.29-1.6 564.09-1.1L564.09-1.1 564.64-0.95 564.64 0 553.14 0 553.14-0.95 553.89-1.15Q555.54-1.7 555.54-3.6L555.54-3.6 555.54-18.45Q555.54-20.2 554.79-21 554.04-21.8 552.29-21.8L552.29-21.8Q549.84-21.8 547.19-19.65L547.19-19.65 547.19-3.55Q547.19-1.6 548.94-1.1L548.94-1.1 549.44-0.95 549.44 0ZM576.09 0.7L576.09 0.7Q572.99 0.7 571.22-0.83 569.44-2.35 569.44-5.8L569.44-5.8Q569.44-7 569.47-8.08 569.49-9.15 569.49-10.6L569.49-10.6 569.49-22.45 565.94-22.45 565.94-23.55 567.29-23.75Q568.74-24 569.76-24.65 570.79-25.3 571.64-26.45L571.64-26.45 574.89-30.95 576.39-30.95 576.24-24 581.94-24 581.94-22.45 576.19-22.45 576.19-5.4Q576.19-3.6 576.97-2.7 577.74-1.8 578.89-1.8L578.89-1.8Q579.89-1.8 580.69-2.27 581.49-2.75 582.29-3.55L582.29-3.55 582.94-2.8Q581.99-1.15 580.29-0.23 578.59 0.7 576.09 0.7ZM597.09 0L584.59 0 584.59-0.95 585.34-1.2Q586.34-1.45 586.71-2.05 587.09-2.65 587.09-3.65L587.09-3.65 587.09-18.3Q587.04-19.4 586.69-19.98 586.34-20.55 585.34-20.75L585.34-20.75 584.59-20.95 584.59-21.85 592.74-24.75 593.34-24.2 593.79-19.8 593.79-19.45Q594.54-20.85 595.69-22.05 596.84-23.25 598.19-24 599.54-24.75 600.89-24.75L600.89-24.75Q602.79-24.75 603.74-23.75 604.69-22.75 604.69-21.2L604.69-21.2Q604.69-19.5 603.74-18.63 602.79-17.75 601.44-17.75L601.44-17.75Q599.44-17.75 597.99-19.55L597.99-19.55 597.89-19.65Q597.39-20.25 596.76-20.33 596.14-20.4 595.54-19.7L595.54-19.7Q595.04-19.2 594.61-18.53 594.19-17.85 593.84-16.95L593.84-16.95 593.84-3.85Q593.84-2.9 594.24-2.27 594.64-1.65 595.59-1.4L595.59-1.4 597.09-0.95 597.09 0ZM618.83 0.7L618.83 0.7Q615.13 0.7 612.36-0.85 609.58-2.4 608.06-5.25 606.53-8.1 606.53-12.05L606.53-12.05Q606.53-16 608.16-18.85 609.78-21.7 612.56-23.23 615.33-24.75 618.83-24.75L618.83-24.75Q622.33-24.75 625.11-23.23 627.88-21.7 629.51-18.88 631.13-16.05 631.13-12.05L631.13-12.05Q631.13-8.1 629.61-5.23 628.08-2.35 625.33-0.83 622.58 0.7 618.83 0.7ZM618.83-0.7L618.83-0.7Q620.63-0.7 621.76-1.68 622.88-2.65 623.38-5.1 623.88-7.55 623.88-11.95L623.88-11.95Q623.88-16.4 623.38-18.88 622.88-21.35 621.76-22.33 620.63-23.3 618.83-23.3L618.83-23.3Q617.03-23.3 615.93-22.33 614.83-21.35 614.31-18.88 613.78-16.4 613.78-11.95L613.78-11.95Q613.78-7.55 614.31-5.1 614.83-2.65 615.93-1.68 617.03-0.7 618.83-0.7ZM645.18 0L633.53 0 633.53-0.95 634.28-1.15Q635.93-1.7 635.93-3.65L635.93-3.65Q635.93-5.35 635.96-7.08 635.98-8.8 635.98-10.5L635.98-10.5 635.98-29.5Q635.98-30.55 635.63-31.08 635.28-31.6 634.28-31.85L634.28-31.85 633.53-32.05 633.53-33 642.28-35.1 642.93-34.65 642.73-27.6 642.73-3.65Q642.78-2.65 643.16-2.02 643.53-1.4 644.48-1.15L644.48-1.15 645.18-0.95 645.18 0Z" opacity="1" transform="matrix(1,0,0,1,0,0)" fill="#4b91f1" class="slogan-text-1" data-fill-palette-color="secondary" id="text-1"></path></svg></g></svg></g></svg></g></svg></g><g><svg viewBox="0 0 244.43135999999998 244.43135999999998" height="244.43135999999998" width="244.43135999999998"><g><svg viewBox="0 0 244.43135999999998 244.43135999999998" height="244.43135999999998" width="244.43135999999998"><g transform="matrix(1,0,0,1,64.6026559364499,105.19185269881244)"><svg viewBox="0 0 115.22604812710016 34.047654602375104" height="34.047654602375104" width="115.22604812710016"><g><svg xmlns="http://www.w3.org/2000/svg" xmlns:xlink="http://www.w3.org/1999/xlink" version="1.1" x="0" y="0" viewBox="0.75 35.694000244140625 98.33300018310547 29.055999755859375" enable-background="new 0 0 100 100" xml:space="preserve" height="34.047654602375104" width="115.22604812710016" class="icon-s-0" data-fill-palette-color="accent" id="s-0"><g fill="#1ebbd7" data-fill-palette-color="accent"><path fill="#1ebbd7" d="M74.116 50.686c0 0 0.564 1.539 2.626 1.539 0 0 12.771 0 14.871 0s1.191-1.693 1.191-1.693L86.98 37.776c-0.39-0.938-1.495-0.763-1.495-0.763-3.417 0-14.935 0-16.078 0-1.374 0-0.763 1.305-0.763 1.305C69.168 39.45 74.116 50.686 74.116 50.686z" data-fill-palette-color="accent"></path><path fill="#1ebbd7" d="M72.717 56.148c-0.745-0.102-1.626-0.403-1.964-1.249-0.954-2.305-7.556-17.08-7.556-17.08s-0.867-2.125-3.627-2.125H18.775c-2.847 0-3.628 2.125-3.628 2.125S8.64 52.756 7.591 54.899c-0.338 0.846-1.218 1.147-1.963 1.249H0.75v8.602h98.333v-8.602H72.717z" data-fill-palette-color="accent"></path></g></svg></g></svg></g><g><path d="M9.88 79.666c1.112-3.025 3.152-4.955 6.122-5.791 2.97-0.835 6.831-0.38 11.584 1.366v0c4.692 1.724 7.915 3.871 9.668 6.443 1.753 2.571 2.073 5.369 0.961 8.393v0c-1.112 3.025-3.151 4.963-6.119 5.813-2.962 0.852-6.817 0.406-11.564-1.339v0c-4.698-1.726-7.923-3.888-9.672-6.485-1.754-2.605-2.08-5.406-0.98-8.4zM12.817 80.745c-0.702 1.91-0.359 3.683 1.028 5.322 1.387 1.638 4.084 3.193 8.091 4.665v0c3.977 1.461 7.014 2.006 9.111 1.635 2.094-0.38 3.486-1.509 4.177-3.389v0c0.702-1.91 0.378-3.67-0.971-5.28-1.349-1.61-4.039-3.156-8.07-4.637v0c-4.007-1.472-7.061-2.037-9.162-1.695-2.101 0.343-3.502 1.469-4.204 3.379z" fill="#1ebbd7" data-fill-palette-color="accent"></path><path d="M30.145 56.091c1.212-1.808 2.959-2.627 5.24-2.459 2.287 0.173 4.992 1.306 8.114 3.4v0c3.026 2.029 5.055 4.14 6.088 6.333 1.037 2.188 0.909 4.245-0.382 6.171v0c-1.072 1.599-2.634 2.456-4.687 2.572v0l8.698 5.833-1.697 3.365-26.022-17.449 1.818-2.712 2.581 1.474c-1.111-2.448-1.028-4.624 0.249-6.528zM46.215 68.499c0.737-1.1 0.73-2.318-0.023-3.654-0.749-1.342-2.378-2.855-4.889-4.538v0c-2.559-1.716-4.562-2.701-6.008-2.956-1.447-0.255-2.524 0.146-3.233 1.203v0c-0.896 1.336-0.794 3.138 0.305 5.407v0l9.503 6.372c2.029 0.07 3.478-0.542 4.345-1.834z" fill="#1ebbd7" data-fill-palette-color="accent"></path><path d="M58.984 41.414c0.424 0.452 0.847 0.945 1.269 1.479v0l-8.532 8.01c1.924 1.879 3.546 2.956 4.867 3.231 1.317 0.27 2.502-0.09 3.557-1.08v0c0.678-0.637 1.184-1.315 1.517-2.035 0.338-0.716 0.571-1.581 0.699-2.597v0l2.746 0.505c-0.141 2.577-1.13 4.728-2.966 6.452v0c-1.935 1.817-4.114 2.511-6.536 2.083-2.413-0.428-4.886-1.991-7.418-4.69v0c-2.533-2.698-4.009-5.295-4.428-7.789-0.424-2.49 0.292-4.606 2.147-6.347v0c1.794-1.684 3.801-2.302 6.021-1.852 2.229 0.45 4.582 1.993 7.057 4.63zM55.806 43.294l-0.205-0.219c-1.662-1.771-3.109-2.835-4.341-3.194-1.227-0.354-2.344-0.058-3.352 0.888v0c-0.909 0.853-1.24 1.926-0.993 3.217 0.251 1.296 1.225 2.933 2.923 4.911v0z" fill="#1ebbd7" data-fill-palette-color="accent"></path><path d="M67.269 23.242c1.379-0.84 2.78-1.017 4.203-0.53 1.418 0.49 2.634 1.567 3.65 3.233v0l8.54 14.014-3.185 1.941-8.273-13.576c-0.75-1.23-1.456-1.998-2.12-2.305-0.669-0.303-1.354-0.242-2.054 0.185v0c-1.373 0.837-1.931 2.795-1.672 5.876v0l8.187 13.435-3.193 1.946-11.626-19.078 2.755-1.678 1.996 2.697c-0.022-1.439 0.172-2.665 0.582-3.679 0.414-1.009 1.15-1.836 2.21-2.481z" fill="#1ebbd7" data-fill-palette-color="accent"></path><path d="M86.4 7.895c1.482-0.475 2.879-0.634 4.19-0.478 1.312 0.156 2.623 0.618 3.933 1.384v0l-1.263 2.725c-1.089-0.54-2.097-0.861-3.025-0.964-0.924-0.111-1.872-0.01-2.844 0.301v0c-1.156 0.371-1.972 1.042-2.446 2.015-0.477 0.967-0.521 2.056-0.133 3.268v0c0.38 1.187 1.035 2.045 1.964 2.575 0.925 0.538 2.46 0.863 4.606 0.975v0c2.476 0.129 4.478 0.63 6.006 1.504 1.528 0.874 2.658 2.454 3.392 4.742v0c0.475 1.482 0.568 2.958 0.28 4.428-0.287 1.475-0.942 2.784-1.967 3.926-1.028 1.15-2.376 1.993-4.043 2.527v0c-1.673 0.536-3.255 0.701-4.746 0.493-1.491-0.207-2.944-0.722-4.36-1.542v0l1.3-2.737c1.219 0.566 2.366 0.927 3.441 1.085 1.075 0.158 2.178 0.055 3.309-0.308v0c1.402-0.449 2.373-1.262 2.912-2.439 0.543-1.185 0.564-2.558 0.063-4.12v0c-0.432-1.347-1.115-2.315-2.05-2.903-0.929-0.591-2.415-0.932-4.458-1.023v0c-2.627-0.135-4.688-0.661-6.183-1.58-1.501-0.916-2.557-2.328-3.168-4.234v0c-0.424-1.322-0.489-2.638-0.196-3.945 0.291-1.314 0.916-2.474 1.875-3.48 0.955-0.998 2.159-1.73 3.611-2.195z" fill="#1ebbd7" data-fill-palette-color="accent"></path><path d="M104.862 10.796l3.693-0.59 3.525 22.061-3.693 0.59zM104.998 0.042c0.753-0.12 1.39 0.02 1.912 0.42 0.522 0.401 0.843 0.98 0.965 1.74v0c0.111 0.695-0.025 1.315-0.409 1.86-0.389 0.553-0.944 0.887-1.665 1.002v0c-0.727 0.116-1.358-0.028-1.894-0.433-0.541-0.398-0.867-0.944-0.978-1.639v0c-0.116-0.727 0.019-1.373 0.406-1.939 0.382-0.558 0.936-0.895 1.663-1.011z" fill="#1ebbd7" data-fill-palette-color="accent"></path><path d="M128.202 9.272c1.615 0.014 2.898 0.603 3.851 1.767 0.946 1.164 1.41 2.722 1.393 4.673v0l-0.143 16.411-3.729-0.033 0.138-15.897c0.013-1.44-0.182-2.466-0.584-3.077-0.408-0.611-1.022-0.92-1.842-0.926v0c-1.608-0.014-3.115 1.355-4.522 4.107v0l-0.136 15.733-3.74-0.033 0.194-22.339 3.226 0.028 0.271 3.344c0.741-1.234 1.553-2.173 2.437-2.817 0.884-0.638 1.946-0.952 3.186-0.941z" fill="#1ebbd7" data-fill-palette-color="accent"></path><path d="M158.768 13.046l0.25 3.511c-0.702 0.115-1.455 0.115-2.258-0.002-0.803-0.117-1.806-0.327-3.008-0.631v0c1.818 1.686 2.408 3.791 1.769 6.314v0c-0.561 2.216-1.627 3.835-3.198 4.856-1.569 1.015-3.437 1.248-5.604 0.7v0c-0.795-0.201-1.487-0.523-2.074-0.964v0c-0.325 0.151-0.612 0.391-0.862 0.721-0.244 0.331-0.418 0.704-0.523 1.117v0c-0.152 0.601-0.106 1.116 0.139 1.544 0.238 0.427 0.783 0.748 1.635 0.963v0l2.385 0.604c1.34 0.339 2.451 0.897 3.334 1.674 0.883 0.776 1.481 1.677 1.794 2.703 0.307 1.024 0.325 2.071 0.054 3.141v0c-0.499 1.972-1.632 3.368-3.398 4.187-1.768 0.825-4.036 0.887-6.803 0.186v0c-2.849-0.721-4.731-1.787-5.646-3.198-0.907-1.416-1.091-3.191-0.551-5.326v0l3.203 0.811c-0.339 1.34-0.251 2.375 0.263 3.104 0.515 0.73 1.677 1.324 3.487 1.782v0c1.753 0.444 3.089 0.469 4.008 0.076 0.913-0.395 1.512-1.156 1.797-2.283v0c0.541-2.135-0.448-3.521-2.964-4.159v0l-1.522-0.385c-1.972-0.499-3.32-1.227-4.044-2.183-0.718-0.955-0.92-2.049-0.608-3.282v0c0.333-1.315 1.356-2.368 3.068-3.161v0c-1.783-1.824-2.325-4.12-1.624-6.887v0c0.575-2.273 1.71-3.924 3.403-4.955 1.685-1.026 3.599-1.268 5.74-0.725v0c1.916 0.485 3.461 0.713 4.634 0.683 1.172-0.023 2.413-0.202 3.724-0.536zM149.709 15.47c-1.202-0.304-2.208-0.136-3.016 0.505-0.802 0.643-1.418 1.813-1.848 3.51v0c-0.376 1.484-0.361 2.757 0.043 3.818 0.396 1.066 1.158 1.742 2.285 2.028v0c1.202 0.304 2.189 0.144 2.96-0.48 0.769-0.618 1.38-1.819 1.831-3.604v0c0.826-3.262 0.074-5.188-2.255-5.777z" fill="#1ebbd7" data-fill-palette-color="accent"></path><path d="M160.789 40.887c-1.142-0.483-1.904-1.236-2.284-2.259-0.381-1.023-0.307-2.16 0.22-3.409v0l10.678-25.263 3.602 1.059-10.814 25.584c-0.362 0.857-0.18 1.438 0.546 1.746v0c0.339 0.143 0.694 0.216 1.064 0.218v0l-0.215 2.675c-0.954 0.151-1.886 0.034-2.797-0.351z" fill="#1ebbd7" data-fill-palette-color="accent"></path><path d="M185.719 41.636c-0.334 0.523-0.707 1.054-1.122 1.595v0l-9.864-6.298c-1.348 2.327-1.992 4.165-1.933 5.513 0.062 1.343 0.703 2.403 1.923 3.182v0c0.784 0.5 1.566 0.824 2.346 0.969 0.777 0.151 1.673 0.164 2.688 0.038v0l0.187 2.786c-2.533 0.498-4.86 0.07-6.983-1.286v0c-2.237-1.428-3.447-3.369-3.628-5.822-0.179-2.444 0.727-5.225 2.718-8.344v0c1.991-3.119 4.144-5.189 6.459-6.21 2.309-1.024 4.536-0.851 6.68 0.518v0c2.074 1.324 3.167 3.117 3.278 5.379 0.113 2.271-0.803 4.931-2.749 7.98zM183.114 39.019l0.161-0.253c1.307-2.047 1.982-3.711 2.027-4.993 0.041-1.276-0.521-2.287-1.686-3.03v0c-1.051-0.671-2.172-0.727-3.363-0.17-1.195 0.563-2.541 1.91-4.04 4.041v0z" fill="#1ebbd7" data-fill-palette-color="accent"></path><path d="M201.644 32.594l12.273 12.374-2.583 1.963-4.572-4.609-18.454 18.305-2.715-2.737 18.454-18.305-4.687-4.726z" fill="#1ebbd7" data-fill-palette-color="accent"></path><path d="M206.296 76.696c-0.656 0.436-1.08 0.854-1.272 1.253-0.198 0.403-0.249 0.879-0.155 1.429v0l-2.605 0.755c-0.431-0.962-0.611-1.835-0.542-2.618 0.078-0.781 0.459-1.55 1.142-2.307v0c-2.463 0.18-4.344-0.706-5.643-2.658v0c-1.019-1.533-1.316-3.092-0.889-4.679 0.417-1.588 1.473-2.946 3.167-4.072v0c1.979-1.316 3.901-1.71 5.765-1.182 1.855 0.527 3.559 1.957 5.111 4.292v0l1.218 1.831 1.694-1.127c1.226-0.815 1.961-1.653 2.203-2.512 0.246-0.854 0.033-1.787-0.639-2.798v0c-0.801-1.205-2.05-2.395-3.747-3.57v0l1.666-2.236c2.093 1.362 3.695 2.879 4.807 4.551v0c1.266 1.904 1.698 3.661 1.295 5.271-0.403 1.61-1.535 3.034-3.396 4.271v0zM199.971 71.629c0.973 1.463 2.706 1.923 5.201 1.381v0l4.34-2.886-0.988-1.484c-0.984-1.479-2.023-2.354-3.119-2.626-1.1-0.277-2.308 0.022-3.626 0.899v0c-1.129 0.751-1.841 1.53-2.133 2.338-0.298 0.811-0.19 1.604 0.325 2.378z" fill="#1ebbd7" data-fill-palette-color="accent"></path><path d="M229.462 84.953c0.792 2 0.503 3.917-0.868 5.752-1.371 1.835-3.843 3.46-7.416 4.876v0c-2.258 0.894-4.31 1.388-6.156 1.479-1.852 0.095-3.412-0.194-4.678-0.866-1.27-0.664-2.171-1.665-2.701-3.005v0c-0.354-0.895-0.456-1.827-0.306-2.797 0.148-0.976 0.529-1.918 1.141-2.827v0l-2.263 0.625-1.22-3.08 29.093-11.524 1.728 3.337-11.196 4.435c2.457 0.451 4.071 1.649 4.842 3.595zM210.112 91.346c0.999 2.522 4.204 2.711 9.614 0.569v0c2.972-1.177 4.936-2.306 5.89-3.386 0.955-1.08 1.208-2.184 0.762-3.313v0c-0.583-1.471-2.165-2.362-4.748-2.673v0l-10.295 4.078c-0.625 0.789-1.058 1.59-1.3 2.401-0.241 0.811-0.216 1.586 0.077 2.324z" fill="#1ebbd7" data-fill-palette-color="accent"></path><path d="M44.615 156.071c1.112 3.025 0.806 5.817-0.916 8.377-1.722 2.56-4.96 4.712-9.714 6.459v0c-4.692 1.724-8.539 2.174-11.538 1.35-3-0.824-5.056-2.749-6.168-5.775v0c-1.112-3.025-0.811-5.822 0.901-8.391 1.706-2.567 4.932-4.723 9.679-6.467v0c4.698-1.726 8.555-2.166 11.57-1.32 3.023 0.85 5.085 2.773 6.186 5.767zM41.678 157.15c-0.702-1.91-2.111-3.04-4.229-3.39-2.117-0.35-5.18 0.21-9.187 1.683v0c-3.977 1.461-6.644 3.012-8.002 4.653-1.35 1.645-1.679 3.407-0.989 5.287v0c0.702 1.91 2.088 3.041 4.158 3.395 2.07 0.354 5.121-0.21 9.153-1.691v0c4.007-1.472 6.7-3.019 8.08-4.64 1.379-1.621 1.718-3.387 1.016-5.297z" fill="#1ebbd7" data-fill-palette-color="accent"></path><path d="M49.47 179.451c1.212 1.808 1.307 3.735 0.284 5.781-1.028 2.05-3.103 4.122-6.225 6.216v0c-3.026 2.029-5.749 3.104-8.171 3.227-2.418 0.128-4.273-0.771-5.563-2.696v0c-1.072-1.599-1.272-3.37-0.6-5.313v0l-8.699 5.832-2.469-2.847 26.023-17.449 1.818 2.712-2.343 1.828c2.687-0.099 4.669 0.804 5.945 2.709zM31.89 189.606c0.737 1.1 1.867 1.555 3.389 1.367 1.526-0.183 3.544-1.116 6.054-2.8v0c2.559-1.716 4.231-3.194 5.016-4.436 0.785-1.242 0.823-2.391 0.114-3.448v0c-0.896-1.336-2.602-1.926-5.118-1.77v0l-9.503 6.372c-0.835 1.851-0.819 3.423 0.048 4.715z" fill="#1ebbd7" data-fill-palette-color="accent"></path><path d="M59.884 206.127c-0.424 0.452-0.89 0.905-1.396 1.36v0l-8.533-8.01c-1.754 2.039-2.727 3.726-2.917 5.062-0.186 1.331 0.248 2.492 1.302 3.481v0c0.678 0.637 1.387 1.098 2.128 1.386 0.736 0.292 1.614 0.47 2.635 0.534v0l-0.331 2.772c-2.581 0.022-4.79-0.829-6.626-2.552v0c-1.935-1.817-2.766-3.947-2.491-6.392 0.275-2.435 1.679-5.002 4.212-7.699v0c2.533-2.698 5.031-4.335 7.493-4.912 2.458-0.58 4.615 0 6.47 1.742v0c1.794 1.684 2.537 3.648 2.229 5.893-0.308 2.253-1.7 4.698-4.175 7.335zM57.807 203.074l0.205-0.219c1.662-1.771 2.633-3.282 2.914-4.533 0.276-1.247-0.09-2.343-1.098-3.29v0c-0.909-0.853-2-1.116-3.274-0.787-1.278 0.333-2.85 1.408-4.716 3.226v0z" fill="#1ebbd7" data-fill-palette-color="accent"></path><path d="M79.377 205.388c1.379 0.84 2.178 2.004 2.399 3.493 0.215 1.485-0.186 3.06-1.201 4.725v0l-8.54 14.014-3.185-1.941 8.273-13.576c0.75-1.23 1.109-2.21 1.077-2.94-0.037-0.734-0.406-1.314-1.106-1.74v0c-1.373-0.837-3.369-0.435-5.989 1.206v0l-8.187 13.435-3.193-1.946 11.625-19.077 2.755 1.679-1.483 3.01c1.269-0.679 2.448-1.069 3.538-1.168 1.086-0.094 2.159 0.181 3.217 0.826z" fill="#1ebbd7" data-fill-palette-color="accent"></path><path d="M97.694 205.365c1.482 0.475 2.712 1.157 3.688 2.046 0.976 0.889 1.775 2.027 2.395 3.413v0l-2.611 1.483c-0.572-1.072-1.206-1.919-1.902-2.543-0.687-0.627-1.517-1.097-2.489-1.408v0c-1.156-0.371-2.21-0.298-3.162 0.218-0.95 0.509-1.619 1.37-2.008 2.581v0c-0.38 1.187-0.346 2.266 0.102 3.238 0.44 0.975 1.5 2.132 3.181 3.471v0c1.94 1.544 3.278 3.116 4.013 4.715 0.736 1.599 0.737 3.542 0.004 5.83v0c-0.475 1.482-1.257 2.737-2.346 3.765-1.091 1.034-2.385 1.718-3.883 2.052-1.506 0.338-3.092 0.24-4.758-0.294v0c-1.673-0.536-3.056-1.322-4.149-2.357-1.093-1.035-1.976-2.298-2.651-3.79v0l2.648-1.471c0.663 1.169 1.386 2.13 2.169 2.883 0.783 0.753 1.74 1.311 2.872 1.673v0c1.402 0.449 2.665 0.352 3.787-0.292 1.13-0.648 1.946-1.754 2.446-3.316v0c0.432-1.347 0.438-2.532 0.02-3.554-0.412-1.021-1.423-2.162-3.033-3.424v0c-2.06-1.637-3.431-3.263-4.113-4.879-0.689-1.618-0.728-3.38-0.117-5.287v0c0.424-1.322 1.135-2.431 2.134-3.324 1.001-0.9 2.184-1.481 3.549-1.742 1.357-0.257 2.762-0.153 4.213 0.313z" fill="#1ebbd7" data-fill-palette-color="accent"></path><path d="M108.387 215.645l3.692 0.59-3.524 22.061-3.693-0.59zM111.867 205.468c0.753 0.12 1.314 0.452 1.685 0.995 0.371 0.543 0.496 1.194 0.375 1.954v0c-0.111 0.695-0.434 1.242-0.969 1.64-0.542 0.404-1.173 0.548-1.894 0.433v0c-0.727-0.116-1.282-0.45-1.664-1.001-0.39-0.546-0.53-1.167-0.419-1.863v0c0.116-0.727 0.446-1.299 0.99-1.715 0.537-0.411 1.169-0.559 1.896-0.443z" fill="#1ebbd7" data-fill-palette-color="accent"></path><path d="M128 215.961c1.615-0.014 2.908 0.553 3.881 1.7 0.966 1.148 1.457 2.697 1.474 4.648v0l0.142 16.41-3.729 0.033-0.138-15.898c-0.013-1.44-0.225-2.462-0.637-3.065-0.419-0.604-1.038-0.902-1.859-0.895v0c-1.608 0.014-3.091 1.409-4.449 4.185v0l0.137 15.733-3.74 0.033-0.194-22.34 3.226-0.028 0.329 3.34c0.719-1.246 1.515-2.2 2.388-2.86 0.873-0.653 1.929-0.986 3.169-0.996z" fill="#1ebbd7" data-fill-palette-color="accent"></path><path d="M152.12 209.197l1.891 2.969c-0.563 0.436-1.225 0.793-1.987 1.073-0.762 0.28-1.744 0.571-2.946 0.876v0c2.402 0.618 3.922 2.188 4.561 4.711v0c0.561 2.216 0.394 4.148-0.502 5.794-0.897 1.64-2.429 2.734-4.596 3.282v0c-0.795 0.201-1.556 0.247-2.283 0.138v0c-0.214 0.287-0.352 0.635-0.416 1.045-0.057 0.407-0.033 0.818 0.072 1.231v0c0.152 0.601 0.438 1.032 0.857 1.292 0.413 0.262 1.045 0.285 1.896 0.069v0l2.386-0.604c1.34-0.339 2.583-0.377 3.729-0.114 1.146 0.263 2.101 0.771 2.864 1.523 0.757 0.754 1.271 1.667 1.542 2.738v0c0.499 1.972 0.167 3.739-0.997 5.299-1.162 1.567-3.127 2.701-5.894 3.401v0c-2.849 0.721-5.011 0.679-6.488-0.126-1.472-0.813-2.478-2.288-3.019-4.423v0l3.203-0.81c0.339 1.34 0.909 2.208 1.709 2.605 0.8 0.397 2.105 0.367 3.914-0.092v0c1.753-0.444 2.94-1.058 3.561-1.841 0.615-0.782 0.78-1.736 0.495-2.863v0c-0.541-2.135-2.069-2.884-4.587-2.247v0l-1.521 0.386c-1.972 0.499-3.504 0.501-4.596 0.004-1.085-0.498-1.784-1.364-2.097-2.597v0c-0.333-1.315 0.066-2.728 1.196-4.24v0c-2.437-0.756-4.005-2.517-4.706-5.285v0c-0.575-2.273-0.364-4.265 0.635-5.977 0.994-1.704 2.562-2.827 4.704-3.37v0c1.916-0.485 3.383-1.02 4.401-1.603 1.02-0.578 2.026-1.326 3.019-2.244zM145.307 215.639c-1.202 0.304-2.006 0.931-2.413 1.88-0.4 0.947-0.385 2.269 0.045 3.966v0c0.376 1.484 0.994 2.597 1.854 3.338 0.856 0.749 1.847 0.981 2.975 0.696v0c1.202-0.304 1.994-0.914 2.375-1.83 0.383-0.91 0.348-2.257-0.104-4.041v0c-0.826-3.262-2.403-4.598-4.732-4.009z" fill="#1ebbd7" data-fill-palette-color="accent"></path><path d="M169.888 229.139c-1.142 0.483-2.213 0.504-3.213 0.064-0.999-0.44-1.763-1.285-2.291-2.534v0l-10.678-25.263 3.27-1.845 10.814 25.584c0.362 0.857 0.906 1.132 1.631 0.825v0c0.339-0.143 0.639-0.347 0.899-0.611v0l1.768 2.019c-0.557 0.789-1.29 1.376-2.2 1.761z" fill="#1ebbd7" data-fill-palette-color="accent"></path><path d="M185.011 205.755c0.334 0.523 0.658 1.085 0.974 1.688v0l-9.864 6.297c1.544 2.202 2.939 3.56 4.187 4.074 1.244 0.508 2.476 0.373 3.695-0.405v0c0.784-0.5 1.406-1.074 1.867-1.72 0.464-0.641 0.853-1.449 1.166-2.423v0l2.606 1.003c-0.614 2.507-1.983 4.438-4.106 5.794v0c-2.237 1.428-4.507 1.709-6.808 0.84-2.292-0.866-4.434-2.859-6.425-5.978v0c-1.991-3.119-2.963-5.943-2.915-8.472 0.043-2.525 1.137-4.473 3.282-5.842v0c2.074-1.324 4.161-1.56 6.26-0.709 2.108 0.853 4.135 2.804 6.081 5.853zM181.541 207.016l-0.162-0.253c-1.307-2.047-2.532-3.36-3.676-3.94-1.141-0.574-2.293-0.49-3.459 0.254v0c-1.051 0.671-1.574 1.664-1.569 2.979 0.008 1.321 0.663 3.109 1.965 5.365v0z" fill="#1ebbd7" data-fill-palette-color="accent"></path><path d="M176.031 190.5l12.273-12.374 1.984 2.568-4.571 4.608 18.454 18.305-2.715 2.738-18.455-18.305-4.687 4.725z" fill="#1ebbd7" data-fill-palette-color="accent"></path><path d="M216.995 178.919c0.656 0.436 1.205 0.666 1.648 0.689 0.448 0.026 0.907-0.11 1.378-0.41v0l1.703 2.11c-0.721 0.769-1.456 1.273-2.204 1.513-0.75 0.23-1.607 0.176-2.569-0.161v0c1.118 2.202 1.029 4.279-0.27 6.231v0c-1.019 1.533-2.343 2.409-3.971 2.63-1.626 0.229-3.286-0.219-4.981-1.346v0c-1.979-1.316-3.085-2.936-3.318-4.86-0.231-1.915 0.429-4.039 1.981-6.373v0l1.218-1.831-1.694-1.127c-1.226-0.815-2.283-1.169-3.169-1.06-0.883 0.103-1.661 0.66-2.333 1.671v0c-0.801 1.205-1.416 2.817-1.844 4.836v0l-2.706-0.672c0.447-2.456 1.226-4.521 2.339-6.193v0c1.266-1.904 2.719-2.981 4.36-3.232 1.641-0.251 3.391 0.243 5.252 1.48v0zM214.768 186.711c0.973-1.463 0.727-3.24-0.737-5.33v0l-4.34-2.886-0.987 1.484c-0.984 1.479-1.389 2.776-1.215 3.892 0.17 1.121 0.913 2.12 2.23 2.997v0c1.129 0.751 2.123 1.106 2.982 1.063 0.863-0.039 1.553-0.445 2.067-1.22z" fill="#1ebbd7" data-fill-palette-color="accent"></path><path d="M207.829 154.978c0.792-2 2.316-3.199 4.572-3.597 2.256-0.399 5.17 0.11 8.743 1.525v0c2.258 0.894 4.091 1.94 5.5 3.137 1.414 1.199 2.353 2.478 2.815 3.835 0.471 1.354 0.441 2.7-0.089 4.039v0c-0.354 0.895-0.919 1.644-1.692 2.247-0.776 0.609-1.699 1.036-2.768 1.28v0l2.078 1.094-1.22 3.08-29.093-11.524 1.026-3.616 11.195 4.435c-1.482-2.011-1.838-3.989-1.067-5.935zM226.309 163.569c0.999-2.522-1.207-4.855-6.617-6.997v0c-2.972-1.177-5.176-1.699-6.611-1.567-1.435 0.133-2.376 0.764-2.824 1.893v0c-0.583 1.471-0.04 3.204 1.63 5.2v0l10.295 4.078c0.996-0.147 1.86-0.434 2.591-0.86 0.731-0.426 1.243-1.008 1.536-1.747z" fill="#1ebbd7" data-fill-palette-color="accent"></path><path d="M7.24 124.25c0-6.95 5.634-12.583 12.584-12.583 6.95 0 12.583 5.634 12.583 12.583 0 6.95-5.634 12.583-12.583 12.583-6.95 0-12.583-5.634-12.584-12.583z" fill="#1ebbd7" data-fill-palette-color="accent"></path><path d="M212.024 124.25c0-6.95 5.634-12.583 12.584-12.583 6.95 0 12.583 5.634 12.583 12.583 0 6.95-5.634 12.583-12.583 12.583-6.95 0-12.583-5.634-12.584-12.583z" fill="#1ebbd7" data-fill-palette-color="accent"></path></g></svg></g></svg></g></svg></g><defs></defs></svg><rect width="395.52" height="141.88704457203374" fill="none" stroke="none" visibility="hidden"></rect></g></svg></g></svg>